<?xml version="1.0" encoding="UTF-8"?>
<svg id="Layer_2" data-name="Layer 2" xmlns="http://www.w3.org/2000/svg" viewBox="0 0 16 15.12">
  <defs>
    <style>
      .cls-1, .cls-2 {
        fill: #2979ff;
      }

      .cls-1, .cls-3 {
        fill-rule: evenodd;
      }

      .cls-4 {
        fill: #f3f6fa;
        font-family: AzonixRegular, Azonix;
        font-size: 6.63px;
      }

      .cls-3 {
        fill: #0b1f3b;
      }
    </style>
  </defs>
  <g id="Layer_1-2" data-name="Layer 1">
    <g>
      <path class="cls-3" d="M3.21,0h9.58c1.77,0,3.21,1.44,3.21,3.21v8.7c0,1.77-1.44,3.21-3.21,3.21H3.21c-1.77,0-3.21-1.44-3.21-3.21V3.21C0,1.44,1.44,0,3.21,0"/>
      <text class="cls-4" transform="translate(2.93 7.02)"><tspan x="0" y="0">Ur</tspan></text>
      <rect class="cls-2" x="7.57" y="9.54" width="1.32" height="3.2"/>
      <path class="cls-1" d="M8.05,9.06h.36c.26,0,.48-.22.48-.48s-.22-.48-.48-.48h-.36c-.26,0-.48.22-.48.48s.22.48.48.48"/>
      <polygon class="cls-1" points="11.04 10.37 10.87 9.54 9.35 9.54 10.28 11.14 9.35 12.75 10.87 12.75 11.04 11.92 11.2 12.75 12.72 12.75 11.8 11.14 12.72 9.54 11.2 9.54 11.04 10.37"/>
      <path class="cls-1" d="M4.73,8.97h1.4v1.9h-1.89v-1.42c0-.27.22-.48.48-.48M3.83,8.12h3.29v3.84h-2.05v.79h-1.79v-4.07c0-.3.25-.55.55-.55Z"/>
    </g>
  </g>
</svg>